<svg width="1200" height="1197" viewBox="0 0 1200 1197" fill="none" xmlns="http://www.w3.org/2000/svg">
<g clip-path="url(#clip0_1_3)">
<path d="M579.578 0H620.853C631.535 1.7694 645.182 1.3685 656.326 2.40049C679.623 4.67683 702.779 8.23112 725.684 13.0473C868.764 43.6003 995.766 125.329 1082.85 242.887C1138.08 317.303 1175.23 403.554 1191.35 494.81C1194.16 510.783 1196.31 526.869 1197.76 543.024C1198.22 548.482 1199.09 566.848 1200 570.988V626.875L1199.89 627.485C1198.53 636.092 1198.23 650.932 1197.25 660.453C1194.81 683.509 1191.1 706.412 1186.1 729.051C1154.44 870.418 1072.64 995.526 955.828 1081.23C883.98 1134.12 801.217 1170.28 713.584 1187.05C697.641 1190.07 681.58 1192.48 665.449 1194.25C661.043 1194.71 640.406 1196.23 637.313 1197H562.159C555.45 1195.67 544.366 1195.17 536.905 1194.36C521.324 1192.76 505.816 1190.53 490.422 1187.64C403.422 1171.59 321.061 1136.46 249.262 1084.78C128.487 998.01 44.3094 869.416 13.1066 724.018C8.17629 700.939 4.60252 677.591 2.40363 654.096C1.44343 643.761 1.76009 629.324 0 619.669V578.439C1.24242 572.198 1.21732 555.624 1.91273 548.247C3.42143 532.242 5.19974 517.186 7.80398 501.283C23.3735 406.928 61.3775 317.692 118.619 241.082C205.574 124.608 331.848 43.6466 473.989 13.2336C496.839 8.35428 519.953 4.80524 543.214 2.60446C553.27 1.68924 570.165 1.43854 579.002 0.0934685L579.578 0Z" fill="#FEFEFE"/>
<path d="M580.982 102.289C848.467 89.8418 1075.37 296.659 1087.67 564.138C1099.97 831.619 893.016 1058.39 625.518 1070.54C358.222 1082.69 131.651 875.943 119.358 608.671C107.065 341.397 313.7 114.727 580.982 102.289Z" fill="#820000"/>
<path d="M603.955 314.829L604.43 315.14C626.186 315.141 640.758 317.361 662.35 321.459C715.805 333.696 764.227 362.021 801.088 402.617C811.289 413.703 827.766 434.069 834.363 447.581C846.299 468.743 850.769 477.564 858.217 501.093C863.49 517.574 869.543 541.489 870.164 558.8C876.211 629.049 854.086 698.818 808.664 752.745C807.287 754.344 805.869 755.909 804.398 757.426C789.814 773.638 778.301 784.548 760.705 797.643C747.762 807.773 724.336 820.645 709.107 827.283C684.527 837.097 661.664 843.876 635.332 846.847C628.893 847.579 619.852 848.774 613.523 848.47C608.197 849.12 599.285 848.915 593.965 848.47C585.905 848.751 576.976 847.415 568.955 846.46C543.836 843.478 522.555 836.904 499.072 827.752C482.334 819.971 462.504 809.952 447.881 798.697C429.875 785.011 418.724 775.308 403.621 758.411C401.965 756.624 400.348 754.801 398.77 752.944C352.866 698.871 330.638 628.61 337.086 557.972C339.125 537.722 342.472 520.352 348.895 501.07C353.849 482.071 363.261 464.556 372.679 447.558C377.789 437.454 385.271 427.916 392.176 418.986C430.693 369.254 485.423 334.592 546.849 321.029C565.331 317.104 584.174 315.132 603.07 315.147L603.955 314.829Z" fill="#FEFEFE"/>
<path d="M603.873 409.002C643.236 410.493 667.254 418.134 700.547 438.834C704.414 441.792 708.316 444.883 712.406 447.517C741.51 473.343 755.672 493.147 768.809 530.12C780.035 567.212 778.43 594.926 769.529 631.721L766.441 640.55C754.277 672.769 733.582 701.402 705.41 721.475C679.787 740.992 640.605 754.649 608.654 754.62L600.1 754.725C565.426 753.928 531.766 742.878 503.365 722.975C475.37 702.468 453.336 674.89 441.533 642.091C440.173 638.382 438.86 634.656 437.594 630.912C427.811 594.99 428.275 565.955 438.453 530.221C451.979 491.975 464.585 474.877 494.476 447.533C497.372 445.803 505.665 439.532 508.671 437.363C545.123 416.851 561.795 410.895 603.873 409.002Z" fill="#FEFEFE"/>
<path d="M507.086 449.159C535.248 428.689 569.19 417.705 604.008 417.792C639.187 417.88 673.412 429.271 701.631 450.284C729.352 470.925 749.848 499.788 760.201 532.759C770.561 565.744 770.232 601.154 759.275 633.947C748.441 666.365 727.758 694.594 700.107 714.691C672.17 734.998 638.543 745.972 604.008 746.06C569.762 746.148 536.348 735.519 508.444 715.669C480.118 695.52 458.922 666.898 447.908 633.93C437.002 601.289 436.635 566.043 446.856 533.179C457.358 499.416 478.483 469.947 507.086 449.159Z" fill="#FEFEFE"/>
<path d="M604.008 417.792C639.188 417.88 673.412 429.271 701.631 450.284C695.391 459.503 686.057 472.698 679.207 481.428C657.369 464.97 630.768 456.072 603.422 456.082C603.791 443.322 603.99 430.557 604.008 417.792Z" fill="#DAA521"/>
<path d="M446.856 533.179C457.358 499.416 478.483 469.947 507.086 449.159C514.51 459.51 522.033 469.792 529.653 480.001C507.383 496.126 491.009 519.102 483.032 545.413C481.108 544.428 474.013 542.247 471.686 541.473L446.856 533.179Z" fill="#DAA521"/>
<path d="M507.086 449.159C535.248 428.689 569.19 417.705 604.008 417.792C603.99 430.557 603.791 443.322 603.422 456.082C576.926 456.092 551.111 464.462 529.653 480.001C522.033 469.792 514.51 459.51 507.086 449.159Z" fill="#FEE000"/>
<path d="M760.201 532.759C770.561 565.744 770.232 601.154 759.275 633.947C749.549 631.398 732.48 625.627 722.672 622.258C731.203 597.035 731.52 569.762 723.574 544.352C734.982 541.352 748.553 536.309 760.201 532.759Z" fill="#DAA521"/>
<path d="M447.908 633.93C450.984 633.818 479.942 624.151 484.433 622.768C493.107 648.038 509.6 669.898 531.524 685.173C524.086 694.858 516.197 706.582 508.444 715.669C480.118 695.52 458.921 666.898 447.908 633.93Z" fill="#DAA521"/>
<path d="M677.965 683.339C681.691 688.571 698.502 710.572 700.107 714.69C672.17 734.998 638.543 745.972 604.008 746.06C604.301 733.463 604.107 720.391 604.084 707.759C630.674 707.63 656.537 699.076 677.965 683.339Z" fill="#DAA521"/>
<path d="M446.856 533.179L471.686 541.473C474.013 542.247 481.108 544.428 483.032 545.413C475.364 570.705 475.854 597.768 484.433 622.768C479.942 624.151 450.984 633.818 447.908 633.93C437.002 601.289 436.635 566.043 446.856 533.179Z" fill="#FEE000"/>
<path d="M701.631 450.284C729.352 470.925 749.848 499.788 760.201 532.759C748.553 536.309 734.982 541.352 723.574 544.352C715.723 519.258 700.207 497.253 679.207 481.428C686.057 472.698 695.391 459.503 701.631 450.284Z" fill="#FEE000"/>
<path d="M531.524 685.173C552.805 699.996 578.148 707.888 604.084 707.759C604.107 720.391 604.301 733.463 604.008 746.06C569.762 746.148 536.348 735.519 508.444 715.669C516.197 706.582 524.086 694.858 531.524 685.173Z" fill="#FEE000"/>
<path d="M722.672 622.258C732.48 625.627 749.549 631.398 759.275 633.947C748.441 666.365 727.758 694.594 700.107 714.691C698.502 710.572 681.691 688.571 677.965 683.339C698.783 668.047 714.393 646.72 722.672 622.258Z" fill="#FEE000"/>
<path d="M534.741 487.19C556.849 470.949 577.284 466.487 603.949 464.593C629.607 466.643 653.273 471.599 673.84 488.484C694.934 505.729 706.529 521.258 715.635 547.241C722.068 573.48 722.971 592.758 714.727 619.223C705.504 643.415 693.264 660.688 672.563 676.419C653.051 691.26 628.277 698.637 603.914 699.082C577.893 698.719 557.795 691.952 536.246 677.749C514.152 661.256 502.473 645.337 492.633 619.95C483.929 593.18 484.259 574.293 491.3 547.46C501.484 519.433 511.605 505.825 534.741 487.19Z" fill="#FEFEFE"/>
<path d="M491.3 547.46C501.484 519.433 511.605 505.825 534.741 487.19L554.681 514.636C539.729 526.566 529.768 539.507 524.142 557.95C513.189 554.629 502.341 550.625 491.3 547.46Z" fill="#DAA521"/>
<path d="M491.3 547.46C502.341 550.625 513.189 554.629 524.142 557.95C518.603 574.745 518.838 592.911 524.809 609.55C515.704 612.228 501.446 616.593 492.633 619.95C483.929 593.18 484.259 574.293 491.3 547.46Z" fill="#FEE000"/>
<path d="M603.949 464.593C629.607 466.643 653.273 471.599 673.84 488.484C669.387 494.89 659.66 508.987 654.803 514.704C640.107 503.849 622.313 498.011 604.043 498.052C603.879 486.973 603.973 475.689 603.949 464.593Z" fill="#DAA521"/>
<path d="M534.741 487.19C556.849 470.949 577.284 466.487 603.949 464.593C603.973 475.689 603.879 486.973 604.043 498.052C586.254 498.251 568.982 504.054 554.681 514.636L534.741 487.19Z" fill="#FEE000"/>
<path d="M524.809 609.55C530.362 626.418 541.107 641.095 555.507 651.477C549.425 659.715 542.464 669.804 536.246 677.749C514.152 661.256 502.473 645.337 492.633 619.95C501.446 616.593 515.704 612.228 524.809 609.55Z" fill="#DAA521"/>
<path d="M673.84 488.484C694.934 505.729 706.529 521.258 715.635 547.241C705.205 550.537 694.793 553.899 684.404 557.326C679.102 540.437 668.777 525.568 654.803 514.704C659.66 508.987 669.387 494.89 673.84 488.484Z" fill="#FEE000"/>
<path d="M715.635 547.241C722.068 573.48 722.971 592.758 714.727 619.223C707.115 617.571 691.723 612.058 683.994 609.527C689.924 592.043 690 574.906 684.404 557.326C694.793 553.899 705.205 550.537 715.635 547.241Z" fill="#DAA521"/>
<path d="M654.123 651.237C660.375 659.551 666.521 667.947 672.563 676.419C653.051 691.26 628.277 698.637 603.914 699.082C604.318 689.151 604.037 677.433 604.055 667.367C622.031 667.437 639.568 661.789 654.123 651.237Z" fill="#DAA521"/>
<path d="M555.507 651.477C570.123 661.25 586.201 667.648 604.055 667.367C604.037 677.433 604.318 689.151 603.914 699.082C577.893 698.719 557.795 691.952 536.246 677.749C542.464 669.804 549.425 659.715 555.507 651.477Z" fill="#FEE000"/>
<path d="M683.994 609.527C691.723 612.058 707.115 617.571 714.727 619.223C705.504 643.415 693.264 660.688 672.562 676.419C666.521 667.947 660.375 659.551 654.123 651.237C668.414 640.943 678.205 625.961 683.994 609.527Z" fill="#FEE000"/>
<path d="M604.096 507.217C620.367 507.141 636.229 512.316 649.324 521.975C662.168 531.451 671.689 544.753 676.512 559.972C681.375 575.331 681.205 591.844 676.025 607.101C670.998 621.913 661.494 634.803 648.826 643.989C635.824 653.417 620.162 658.455 604.102 658.385C588.445 658.309 573.197 653.382 560.465 644.271C547.608 635.066 537.959 622.071 532.876 607.101C527.784 592.102 527.532 575.889 532.153 560.743C536.927 545.097 546.649 531.422 559.857 521.771C572.704 512.385 588.187 507.292 604.096 507.217Z" fill="#DAA521"/>
<path d="M559.857 521.771C572.704 512.385 588.188 507.292 604.096 507.217L604.008 582.446C590.062 562.8 574.43 540.847 559.857 521.771Z" fill="#FEE000"/>
<path d="M532.153 560.743L579.452 576.052C585.905 578.136 597.885 582.394 604.143 583.813L532.876 607.101C527.784 592.102 527.532 575.889 532.153 560.743Z" fill="#FEE000"/>
<path d="M649.324 521.975C662.168 531.451 671.689 544.753 676.512 559.972C669.785 562.714 657.434 566.299 650.203 568.625C635.25 573.539 620.244 578.285 605.186 582.86C616.781 567.737 627.645 551.763 639.111 536.509C642.299 532.262 646.764 526.51 649.324 521.975Z" fill="#FEE000"/>
<path d="M560.465 644.271L604.008 584.762L604.102 658.385C588.445 658.309 573.197 653.382 560.465 644.271Z" fill="#FEE000"/>
<path d="M605.186 583.879C628.383 591.633 652.699 599.906 676.025 607.101C670.998 621.913 661.494 634.803 648.826 643.99L605.186 583.879Z" fill="#FEE000"/>
<path d="M604.43 315.14C626.186 315.141 640.758 317.361 662.35 321.459C715.805 333.696 764.227 362.021 801.088 402.617C811.289 413.703 827.766 434.069 834.363 447.581C846.299 468.743 850.769 477.564 858.217 501.093C863.49 517.574 869.543 541.489 870.164 558.8C876.211 629.049 854.086 698.818 808.664 752.745C807.287 754.344 805.869 755.909 804.398 757.426C789.814 773.638 778.301 784.548 760.705 797.643C747.762 807.773 724.336 820.645 709.107 827.283C684.527 837.097 661.664 843.876 635.332 846.847C628.893 847.579 619.852 848.774 613.523 848.47C608.197 849.12 599.285 848.915 593.965 848.47C596.391 848.153 600.381 848.241 602.941 848.218L602.854 840.115L604.195 840.109C637.201 839.839 669.873 833.441 700.547 821.249C718.605 814.88 740.057 801.193 755.742 790.6C771.914 779.474 788.713 762.764 801.328 747.817C845.906 694.981 864.762 634.064 861.785 565.422C860.115 542.327 856.389 525.844 850.096 503.495C842.625 482.34 836.373 466.777 824.478 447.426C814.658 432.783 806.695 421.621 794.73 408.401C760.336 370.496 715.353 343.786 665.607 331.73C644.291 325.813 626.309 324.347 604.529 323.95C603.867 321.606 604.049 317.544 604.43 315.14Z" fill="#FEFEFE"/>
<path d="M602.854 840.115L604.195 840.109L604.072 848.224C606.896 848.229 610.799 848.106 613.523 848.47C608.197 849.12 599.285 848.915 593.965 848.47C596.391 848.153 600.381 848.241 602.941 848.218L602.854 840.115Z" fill="#DFD1D2"/>
<path d="M603.955 314.829L604.43 315.14C604.049 317.544 603.867 321.606 604.529 323.95L603.955 324.091L602.373 323.94C582.287 324.308 562.8 325.821 543.307 331.199C491.937 343.416 445.552 371.095 410.408 410.501C398.981 423.424 392.28 433.076 382.751 447.101C371.204 466.341 364.211 482.708 356.921 503.628C351.408 522.111 346.678 544.881 345.315 564.211C341.779 633.596 361.458 695.385 406.485 748.784C420.209 765.037 435.926 779.497 453.265 791.819C465.353 799.863 477.168 808.007 490.442 813.972C495.665 816.321 502.206 820.094 507.649 821.7C537.995 833.594 570.262 839.834 602.853 840.115L602.941 848.218C600.381 848.241 596.391 848.153 593.965 848.47C585.905 848.751 576.976 847.415 568.955 846.46C543.836 843.478 522.555 836.904 499.072 827.752C482.334 819.971 462.504 809.952 447.881 798.697C429.875 785.011 418.724 775.308 403.621 758.411C401.965 756.624 400.348 754.801 398.77 752.944C352.866 698.871 330.638 628.61 337.086 557.972C339.125 537.722 342.472 520.352 348.895 501.07C353.849 482.071 363.261 464.556 372.679 447.558C377.789 437.454 385.271 427.916 392.176 418.986C430.693 369.254 485.423 334.592 546.849 321.029C565.331 317.104 584.174 315.132 603.07 315.147L603.955 314.829Z" fill="#FEFEFE"/>
<path d="M603.955 314.829L604.43 315.14C604.049 317.544 603.867 321.606 604.529 323.95L603.955 324.091L602.373 323.94C603.34 322.141 603.053 317.453 603.07 315.147L603.955 314.829Z" fill="#FDFAE8"/>
<path d="M543.307 331.199C540.294 341.399 533.634 362.994 529.788 372.917C491.486 385.778 451.157 415.01 427.237 447.551C421.476 447.581 386.249 448.141 382.751 447.101C392.28 433.076 398.981 423.424 410.408 410.501C445.552 371.095 491.937 343.416 543.307 331.199Z" fill="#820000"/>
<path d="M545.6 794.203C581.347 803.484 626.76 804.644 662.344 793.647C668.672 797.59 676.312 803.437 682.436 807.89C687.867 811.839 695.461 817.048 700.547 821.249C669.873 833.441 637.201 839.839 604.195 840.109L602.854 840.115C570.262 839.834 537.995 833.594 507.649 821.7L545.6 794.203Z" fill="#820000"/>
<path d="M823.852 592.442C827.637 589.243 858.463 566.497 861.785 565.422C864.762 634.064 845.906 694.981 801.328 747.817C796.957 735.724 790.436 715.722 786.979 703.506C810.762 665.726 820.611 636.748 823.852 592.442Z" fill="#820000"/>
<path d="M665.607 331.73C715.354 343.786 760.336 370.496 794.73 408.401C806.695 421.621 814.658 432.783 824.479 447.426C811.096 447.955 792.545 447.756 778.963 447.542C752.783 413.256 719.15 389.643 679.318 373.811L665.607 331.73Z" fill="#820000"/>
<path d="M345.315 564.211C349.574 565.899 377.254 586.571 381.881 590.391C385.144 635.154 395.124 668.316 420.881 705.72C418.548 712.997 409.444 744.085 406.485 748.784C361.458 695.385 341.779 633.596 345.315 564.211Z" fill="#820000"/>
<path d="M604.559 369.117C632.9 370.279 657.012 373.746 683.256 384.987C684.24 390.249 689.338 405.269 691.295 410.915C694.16 419.174 697.465 431.186 700.547 438.834C667.254 418.134 643.236 410.493 603.873 409.002C604.195 396.161 603.961 382.168 604.008 369.245L604.559 369.117Z" fill="#DAA521"/>
<path d="M399.936 517.666C412.273 521.669 426.367 525.891 438.453 530.221C428.275 565.955 427.811 594.99 437.594 630.912C433.45 627.332 425.668 621.989 420.973 618.579L391.172 596.953C386.733 576.43 394.801 537.986 399.936 517.666Z" fill="#FEE000"/>
<path d="M399.936 517.666C408.82 492.971 421.166 467.484 438.383 447.468C454.826 447.935 478.022 448.043 494.476 447.533C464.585 474.877 451.979 491.975 438.453 530.221C426.367 525.891 412.273 521.669 399.936 517.666Z" fill="#DAA521"/>
<path d="M441.533 642.091C453.336 674.89 475.37 702.468 503.365 722.975C496.253 732.449 487.224 744.425 480.662 754.139C459.466 740.341 437.889 716.472 424.032 695.414C425.435 692.678 429.038 680.948 430.11 677.638L441.533 642.091Z" fill="#DAA521"/>
<path d="M601.74 369.179L604.008 369.246C603.961 382.168 604.195 396.161 603.873 409.002C561.795 410.895 545.123 416.851 508.671 437.363C510.888 432.034 513.377 423.54 515.261 417.761C519.012 406.401 522.68 395.014 526.264 383.6C546.779 374.113 579.204 369.757 601.74 369.179Z" fill="#FEE000"/>
<path d="M806.027 517.551C813.328 546.35 817.348 568.978 814.576 599.092C799.992 609.439 783.779 620.928 769.529 631.721C778.43 594.926 780.035 567.212 768.809 530.12C778.078 525.716 795.908 522.305 806.027 517.551Z" fill="#DAA521"/>
<path d="M767.496 447.491C782.918 463.748 798.697 496.412 806.027 517.551C795.908 522.305 778.078 525.716 768.809 530.12C755.672 493.147 741.51 473.343 712.406 447.517C729.867 447.909 750.047 447.764 767.496 447.491Z" fill="#FEE000"/>
<path d="M503.365 722.975C531.766 742.878 565.426 753.928 600.1 754.725C585.849 765.043 568.922 776.638 555.233 787.301C525.687 780.265 505.985 771.031 480.662 754.139C487.224 744.425 496.253 732.449 503.365 722.975Z" fill="#FEE000"/>
<path d="M705.41 721.475C712.629 731.395 721.131 742.538 727.969 752.569C701.074 769.361 685.395 779.362 653.238 786.815C639.539 776.392 622.787 764.498 608.654 754.62C640.605 754.649 679.787 740.992 705.41 721.475Z" fill="#DAA521"/>
<path d="M766.441 640.55C769.969 651.841 773.59 663.102 777.293 674.333C778.67 678.558 781.752 688.799 783.521 692.59C769.23 714.122 749.607 737.968 727.969 752.569C721.131 742.538 712.629 731.395 705.41 721.475C733.582 701.402 754.277 672.769 766.441 640.55Z" fill="#FEE000"/>
<path d="M733.178 759.43C740.631 769.871 748.154 780.259 755.742 790.6C740.057 801.193 718.605 814.88 700.547 821.249C695.461 817.048 687.867 811.839 682.435 807.89C676.312 803.437 668.672 797.59 662.344 793.647C685.57 787.19 713.736 774.013 733.178 759.43Z" fill="#DAA521"/>
<path d="M733.178 759.43C755.244 743.329 771.141 725.477 786.978 703.506C790.436 715.722 796.957 735.724 801.328 747.817C788.713 762.764 771.914 779.474 755.742 790.6C748.154 780.259 740.631 769.871 733.178 759.43Z" fill="#FEE000"/>
<path d="M475.194 761.07C494.663 775.788 522.415 787.19 545.6 794.203L507.649 821.7C502.206 820.094 495.665 816.321 490.442 813.972C477.168 808.007 465.353 799.863 453.265 791.819C459.538 782.11 469.625 770.603 475.194 761.07Z" fill="#FEE000"/>
<path d="M420.881 705.72C438.189 729.801 450.852 743.036 475.194 761.071C469.625 770.603 459.538 782.11 453.265 791.819C435.926 779.497 420.209 765.037 406.485 748.784C409.444 744.085 418.548 712.997 420.881 705.72Z" fill="#DAA521"/>
<path d="M850.096 503.495C856.389 525.844 860.115 542.327 861.785 565.422C858.463 566.497 827.637 589.243 823.852 592.442C824.619 564.56 822.504 542.11 814.201 515.27C823.113 511.668 840.305 506.653 850.096 503.495Z" fill="#DAA521"/>
<path d="M526.264 383.6C522.68 395.014 519.012 406.401 515.261 417.761C513.377 423.54 510.888 432.034 508.671 437.363C505.665 439.532 497.372 445.803 494.476 447.533C478.022 448.043 454.826 447.935 438.383 447.468C453.609 427.498 479.208 407.218 501.126 395.309C508.874 391.099 518.14 387.148 526.264 383.6Z" fill="#820000"/>
<path d="M824.479 447.426C836.373 466.777 842.625 482.34 850.096 503.495C840.305 506.653 823.113 511.668 814.201 515.27C806.748 490.689 793.992 468.23 778.963 447.542C792.545 447.756 811.096 447.955 824.479 447.426Z" fill="#FEE000"/>
<path d="M604.529 323.95C626.309 324.347 644.291 325.813 665.607 331.73L679.318 373.811C657.082 366.724 634.225 360.473 610.594 360.841C608.859 360.548 605.742 360.556 603.896 360.503C604.014 348.366 604.037 336.228 603.955 324.091L604.529 323.95Z" fill="#DAA521"/>
<path d="M382.751 447.101C386.249 448.141 421.476 447.581 427.237 447.551C412.167 467.224 399.056 491.11 391.933 514.944C382.403 512.48 366.841 506.874 356.921 503.628C364.211 482.708 371.204 466.341 382.751 447.101Z" fill="#DAA521"/>
<path d="M356.921 503.628C366.841 506.874 382.403 512.48 391.933 514.944C384.154 539.303 380.751 564.846 381.881 590.391C377.254 586.571 349.574 565.899 345.315 564.211C346.678 544.881 351.408 522.111 356.921 503.628Z" fill="#FEE000"/>
<path d="M602.373 323.94L603.955 324.091C604.037 336.228 604.014 348.366 603.897 360.503C601.647 360.547 598.482 360.508 596.332 360.84C574.219 360.135 550.642 366.512 529.788 372.917C533.634 362.994 540.294 341.399 543.307 331.199C562.8 325.821 582.287 324.308 602.373 323.94Z" fill="#FEE000"/>
<path d="M683.256 384.987C720.018 400.843 741.568 417.376 767.496 447.491C750.047 447.764 729.867 447.909 712.406 447.517C708.316 444.883 704.414 441.792 700.547 438.834C697.465 431.186 694.16 419.174 691.295 410.915C689.338 405.269 684.24 390.249 683.256 384.987Z" fill="#820000"/>
<path d="M391.172 596.953L420.973 618.579C425.668 621.989 433.45 627.332 437.594 630.912C438.86 634.656 440.173 638.382 441.533 642.091L430.11 677.638C429.038 680.948 425.435 692.678 424.032 695.414C404.909 666.576 393.975 631.258 391.172 596.953Z" fill="#820000"/>
<path d="M769.529 631.721C783.779 620.928 799.992 609.439 814.576 599.092C811.939 632.313 801.281 664.397 783.521 692.59C781.752 688.799 778.67 678.558 777.293 674.333C773.59 663.102 769.969 651.841 766.441 640.55L769.529 631.721Z" fill="#820000"/>
<path d="M600.1 754.725L608.654 754.62C622.787 764.498 639.539 776.392 653.238 786.815C626.256 793.729 581.82 795.75 555.233 787.301C568.922 776.638 585.849 765.043 600.1 754.725Z" fill="#820000"/>
<path d="M603.897 360.503C605.742 360.556 608.859 360.548 610.594 360.841C608.496 360.939 607.154 360.889 605.127 361.515C603.316 363.721 603.703 366.39 604.559 369.117L604.008 369.246L601.74 369.179L602.842 367.894C603.082 365.541 603.387 363.838 603.035 361.504C601.061 361.065 598.4 360.98 596.332 360.84C598.482 360.508 601.647 360.547 603.897 360.503Z" fill="#FDFAE8"/>
<path d="M804.398 757.426C823.447 815.97 844.113 876.411 862.125 935.031C862.863 936.496 862.91 936.396 862.893 938.007C860.613 937.779 721.324 836.113 709.107 827.283C724.336 820.645 747.762 807.773 760.705 797.643C778.301 784.548 789.814 773.638 804.398 757.426Z" fill="#DAA521"/>
<path d="M804.398 757.426C823.447 815.97 844.113 876.411 862.125 935.031L861.293 935.16C852.797 924.784 842.203 909.298 834.152 898.242L787.201 833.752C778.57 821.899 769.641 809.15 760.705 797.643C778.301 784.548 789.814 773.638 804.398 757.426Z" fill="#FEE000"/>
<path d="M403.621 758.411C418.724 775.308 429.875 785.011 447.881 798.697C462.504 809.952 482.334 819.971 499.072 827.752L399.074 900.152L365.63 924.332C360.621 927.953 353.356 933.555 348.289 936.795C346.543 938.283 347.321 938.213 345.658 938.271C345.698 934.644 356.341 904.066 358.186 898.395L387.413 808.622C392.662 792.534 398.966 774.564 403.621 758.411Z" fill="#DAA521"/>
<path d="M348.289 936.795C350.322 931.521 367.427 909.392 371.682 903.55L421.1 835.697C429.347 824.401 440.43 810.14 447.881 798.697C462.504 809.952 482.334 819.971 499.072 827.752L399.074 900.152L365.63 924.332C360.621 927.953 353.356 933.555 348.289 936.795Z" fill="#FEE000"/>
<path d="M1020.24 447.721L1021.96 447.665L1021.96 448.405C1018.2 451.708 1011.7 456.057 1007.42 459.16L979.869 479.133L908.063 531.205C895.969 539.975 881.877 549.724 870.164 558.8C869.543 541.489 863.49 517.574 858.217 501.093C850.77 477.564 846.299 468.743 834.363 447.581L955.154 447.58C976.113 447.582 999.469 447.099 1020.24 447.721Z" fill="#DAA521"/>
<path d="M834.363 447.581L955.154 447.58C976.113 447.582 999.469 447.099 1020.24 447.721C1015.99 450.25 991.764 457.548 985.254 459.651L899.285 487.606L872.596 496.212C869.086 497.345 861.434 499.615 858.217 501.093C850.77 477.564 846.299 468.743 834.363 447.581Z" fill="#FEE000"/>
<path d="M188.159 449.562C186.988 448.938 187.38 449.191 186.456 448.181C189.38 446.639 356.801 447.602 372.679 447.558C363.261 464.556 353.849 482.071 348.895 501.07C342.472 520.352 339.125 537.722 337.086 557.972C332.517 554.071 325.124 549.03 320.159 545.435L290.859 524.208C256.76 499.475 221.926 474.674 188.159 449.562Z" fill="#DAA521"/>
<path d="M188.159 449.562C192.097 449.588 208.874 455.532 213.717 457.156C258.582 472.206 304.093 485.895 348.895 501.07C342.472 520.352 339.125 537.722 337.086 557.972C332.517 554.071 325.124 549.03 320.159 545.435L290.859 524.208C256.76 499.475 221.926 474.674 188.159 449.562Z" fill="#FEE000"/>
<path d="M603.228 147.759L604.037 145.421L604.787 145.269C607.875 150.622 615.867 178.577 618.258 185.938L647.766 276.765C651.809 289.199 657.773 309.718 662.35 321.459C640.758 317.361 626.186 315.141 604.43 315.14L603.955 314.829L603.07 315.147C584.174 315.132 565.331 317.104 546.849 321.029C552.379 301.961 560.031 280.281 566.238 261.219L603.228 147.759Z" fill="#DAA521"/>
<path d="M603.228 147.759C605.086 151.384 603.738 295.686 603.955 314.829L603.07 315.147C584.174 315.132 565.331 317.104 546.849 321.029C552.379 301.961 560.031 280.281 566.238 261.219L603.228 147.759Z" fill="#FEE000"/>
<path d="M115.423 842.857C124.929 846.853 142.949 861.272 144.252 871.332C145.55 884.843 148.893 893.115 157.484 903.662C159.465 906.093 163.31 914.46 166.594 914.021C170.438 907.4 159.623 879.605 164.5 874.66C171.755 878.714 177.566 885.575 183.415 891.235C204.192 911.331 197.035 934.685 203.034 960.834C207.925 966.09 212.951 971.609 218.299 976.366C221.748 963.061 218.879 958.789 217.83 945.554C217.185 937.421 217.788 932.107 219.457 924.256C235.231 938.693 252.485 954.43 257.682 976.003C260.227 986.567 260.04 998.08 263.562 1008.54C264.343 1010.85 265.745 1013.23 266.099 1015.57C264.568 1015.89 264.969 1015.58 263.872 1016.44C266.481 1019.87 281.122 1029.78 285.577 1032.94C285.033 1019.34 280.933 1014.03 277.005 1001.44C275.075 995.25 274.86 985.26 274.697 978.78C296.3 992.666 320.036 1009.26 327.598 1034.95C330.731 1045.59 332.517 1055.42 337.969 1065.05C345.59 1069.37 353.602 1073.15 361.477 1076.99C359.486 1065.43 353.933 1061.13 349.049 1050.99C345.408 1043.43 342.912 1035 340.518 1026.96C358.584 1034.85 380.204 1045.6 391.479 1062.38C397.1 1070.74 396.757 1083.26 403.486 1091.15C409.041 1097.67 448.805 1108.71 449.693 1115.37C446.796 1117.22 440.066 1115.38 436.666 1114.75C422.426 1111.38 414.142 1109.44 400.443 1103.82C388.897 1105.79 382.001 1110.46 371.49 1113.35C348.693 1119.63 317.842 1102.23 298.317 1091.06C304.998 1089.08 316.914 1085.6 323.496 1084.91C337.531 1083.44 344.169 1084.3 357.959 1079.82L333.029 1067.3C321.729 1068.64 311.207 1072.71 299.371 1073.68C268.601 1076.2 244.363 1056.71 222.321 1038.33C244.372 1030.07 261.08 1036.57 282.461 1035.83C273.306 1029.28 264.563 1022.42 255.557 1015.69C242.424 1014.5 229.922 1014.98 216.786 1013.01C190.196 1009.05 173.274 989.532 158.28 968.808C164.612 969.752 172.14 970.736 178.332 971.849C191.898 974.298 197.679 977.948 211.801 975.95C205.714 969.816 199.495 962.943 193.541 956.604C175.274 951.782 155.477 951.841 141.537 937.14C131.181 926.219 127.346 912.808 123.008 898.834C140.57 911.319 139.577 913.101 161.257 916.112C156.482 909.679 151.712 902.42 147.166 895.752C116.285 887.538 117.185 870.922 115.423 842.857Z" fill="#820000"/>
<path d="M1093.19 838.972L1093.71 839.523C1094.75 845.452 1091.84 868.719 1087.9 875.081C1080.88 886.419 1073.72 888.393 1062.29 891.756C1057.75 898.523 1053.14 905.244 1048.45 911.911C1068.23 909.327 1070.51 906.96 1086.45 894.692C1083.58 904.951 1080.15 915.339 1074.66 924.496C1061.49 946.45 1038.88 947.271 1016 952.473C1010 958.532 1003.76 965.603 997.693 971.902C1011.77 973.601 1017.06 970.455 1030.82 967.748C1036.8 966.57 1045.06 965.621 1051.24 964.836C1041.36 978.206 1031.41 990.627 1017.28 999.808C998.057 1012.29 975.516 1009.51 953.766 1011.61C945.053 1018.47 936.199 1025.15 927.223 1031.65C950.367 1032.95 960.668 1025.38 987.205 1034.14C983.098 1037.66 978.938 1041.13 974.742 1044.55C954.727 1060.5 930.645 1073.52 904.594 1068.85C896.227 1067.35 884.93 1064.14 877.189 1063.3L876.311 1063.21C868.102 1067.47 859.852 1071.85 851.432 1075.65C865.359 1080.19 872.561 1079.3 886.734 1080.89C893.449 1081.64 904.477 1084.95 911.232 1086.9C892.096 1098.24 859.916 1115.55 837.861 1109.17C827.566 1106.19 821.01 1102.02 809.338 1099.68C794.988 1105.48 787.107 1107.26 772.213 1110.73C769.277 1111.29 760.887 1113.46 759.053 1110.51C763.119 1104.19 802.055 1093.57 807.58 1085.2C811.154 1079.8 812.467 1070.57 814.975 1064.37C822.803 1045.01 850.219 1030.66 868.852 1023.2C867.064 1030.11 863.555 1040.95 860.273 1047.09C854.49 1057.93 850.922 1061.06 847.799 1072.96C855.404 1069.43 864.481 1065.1 871.67 1060.89C879.627 1046.21 879.996 1028.91 889.061 1015.01C900.018 998.185 918.1 985.108 934.992 974.656C934.77 980.491 934.254 992.233 932.438 997.635C927.99 1010.82 925.025 1014.74 923.783 1029C928.055 1025.97 943.57 1015.52 945.715 1012.11L943.811 1011.77L943.43 1011.02C947.73 1000.89 949.26 990.241 950.549 979.349C953.654 953.112 971.906 937.234 990.176 919.973C991.623 927.666 992.238 933.262 991.781 941.154C991.031 953.985 987.393 959.112 991.453 971.955C995.754 968.627 1002.79 960.74 1006.67 956.586C1009.83 941.652 1009.78 930.971 1011.02 916.288C1012.6 897.545 1031.34 880.513 1045.69 869.861C1047.66 884.802 1041.59 893.649 1042.2 907.669C1042.24 908.683 1042.68 910.253 1043.71 910.903C1046.85 907.851 1062.15 885.751 1062.53 882.692C1065.6 858.12 1070.88 852.94 1093.19 838.972Z" fill="#820000"/>
<path d="M562.921 13.7159C568.501 13.2917 572.767 13.9835 578.266 14.8111C578.709 19.0747 579.916 26.0674 577.989 29.6824C575.134 30.2188 571.25 22.7137 566.948 20.0575C564.298 18.3879 561.091 17.8433 558.038 18.5441C551.005 20.2294 546.331 26.2202 548.415 33.4449C551.742 43.748 564.324 45.5955 573.252 50.7805C583.965 57.0017 587.678 68.5642 580.982 79.5264C573.937 91.0623 556.216 88.0911 544.995 88.128C541.694 88.1386 534.343 89.9227 530.713 90.6275C522.765 82.5708 516.669 72.3895 508.325 65.3546C505.11 62.6442 499.04 64.5548 494.914 65.402C496.303 73.1324 497.415 81.1839 499.796 88.6524C501.176 92.9828 505.259 91.2017 506.812 94.3621C505.327 96.009 487.917 99.2532 485.445 99.2215L484.719 98.4335C484.891 96.3037 486.857 95.4167 488.933 92.9647C489.97 88.7573 486.615 75.3126 485.611 70.4232C483.546 59.3995 481.341 45.8107 478.417 34.8997C477.626 31.9449 472.306 31.2232 471.309 28.8158L472.183 28.0271C483.93 25.4956 497.208 21.9633 509.178 22.2543C524.036 22.6153 530.316 41.7534 521.443 52.4199C518.558 55.8893 516.745 57.1778 513.085 59.7873C526.917 65.3142 533.202 82.6686 541.388 84.3255C543.184 82.112 539.713 77.3404 542.414 73.0223C549.626 71.1855 548.1 79.227 552.469 81.8021C562.407 87.5597 577.074 81.5601 574.606 68.5759C571.516 52.3157 540.103 54.1402 538.533 36.1072C537.156 20.282 550.185 14.8873 562.921 13.7159Z" fill="#820000"/>
<path d="M498.342 27.6769C511.868 26.3196 517.841 38.2141 514.08 50.349C512.643 54.9842 508.665 57.0688 504.363 58.735C500.917 59.4821 497.464 60.1974 494.005 60.8818L487.975 29.7599C491.426 29.0426 494.881 28.3482 498.342 27.6769Z" fill="#FEFEFE"/>
<path d="M79.3049 702.117C87.5971 701.273 95.6461 701.941 102.838 706.664C114.895 714.573 119.536 733.961 110.665 745.796C102.855 756.219 89.659 759.834 77.4188 761.832C68.485 762.91 59.2705 761.897 51.7884 756.477C40.0918 747.999 36.3959 728.676 45.8795 717.251C53.9971 707.472 67.2059 703.74 79.3049 702.117Z" fill="#820000"/>
<path d="M84.4517 712.071C99.706 710.155 117.56 717.819 106.669 736.527C101.203 745.913 81.0867 750.554 70.456 752.042C60.9967 753.899 48.0861 750.653 46.1553 739.662C45.4464 735.531 46.4414 731.289 48.9133 727.903C56.0326 717.948 73.0224 713.706 84.4517 712.071Z" fill="#FEFEFE"/>
<path d="M787.389 46.4152C837.094 43.0389 823.617 111.51 789.732 119.435C740.572 122.836 753.404 54.7395 787.389 46.4152Z" fill="#820000"/>
<path d="M790.465 51.6404C810.018 49.0939 812.215 67.6302 808.16 81.8536C804.539 94.5618 799.641 108.383 786.891 114.163C762.369 117.39 765.715 89.243 772.072 74.7202C776.561 64.4786 779.643 56.4867 790.465 51.6404Z" fill="#FEFEFE"/>
<path d="M621.088 1094C635.408 1093.11 644.772 1100.12 647.842 1114.07C652.295 1134.31 654.75 1167.49 629.525 1174.31C595.588 1178.48 594.832 1125.69 605.432 1104.94C608.631 1098.69 614.449 1095.56 621.088 1094Z" fill="#820000"/>
<path d="M622.541 1098.62C638.789 1098.77 639.146 1128.78 639.381 1139.98C639.598 1150.26 639.445 1165.47 628.166 1169.7C620.818 1169.58 616.043 1164.82 614.303 1157.55C610.564 1141.93 608.092 1120.28 614.42 1105.14C615.99 1101.37 618.902 1099.73 622.541 1098.62Z" fill="#FEFEFE"/>
<path d="M561.909 1093.48C578.183 1092.59 588.732 1099.53 590.643 1116.51C593.303 1140.16 582.919 1169.19 556.245 1172.58C553.19 1172.97 550.197 1172.52 547.812 1170.51C547.532 1166.58 553.008 1166.89 555.771 1166.71C572.15 1162.19 575.671 1150.84 578.893 1135.94C569.135 1140.95 557.92 1144.78 547.649 1138.1C536.899 1130.9 536.837 1113.66 543.649 1103.81C548.233 1097.17 554.37 1094.77 561.909 1093.48Z" fill="#820000"/>
<path d="M561.269 1098.66C569.183 1097.61 575.175 1099.27 578.457 1107.4C580.791 1113.17 581.423 1123.24 578.973 1129.04C577.458 1132.62 572.062 1134.2 568.592 1135.38C566.319 1135.56 562.278 1135.93 560.137 1135.35C556.542 1134.33 553.54 1131.85 551.872 1128.51C546.829 1118.57 550.311 1103.57 561.269 1098.66Z" fill="#FEFEFE"/>
<path d="M79.0752 771.798C95.4024 771.142 100.402 785.456 104.773 798.105C111.89 795.51 119.15 793.19 125.862 789.663C130.317 787.325 127.802 782.485 130.673 780.628L131.664 781.173C133.409 785.45 139.74 799.23 138.476 802.47C136.679 802.523 135.434 800.842 133.498 799.365C129.545 798.633 122.807 801.885 118.791 803.466C106.066 808.347 88.1104 814.505 75.9914 820.809C73.7895 821.952 73.7238 827.846 73.367 830.693C68.5067 821.952 62.1123 804.896 59.802 794.924C56.608 781.144 66.1453 773.814 79.0752 771.798Z" fill="#820000"/>
<path d="M80.6543 781.729C94.2738 780.358 96.4488 788.901 100.71 799.717L82.4232 806.789L70.49 811.423C63.7576 795.733 62.2125 787.881 80.6543 781.729Z" fill="#FEFEFE"/>
<path d="M1172.3 501.755C1173.24 502.399 1173.05 502.32 1173.82 503.211C1174.72 507.534 1175.13 512.571 1175.59 517.116C1176.49 526.63 1179.97 539.116 1174.28 547.805C1168.15 557.176 1152.77 557.718 1144.37 551.29C1135.83 544.754 1135.46 533.213 1134.31 523.475L1123.38 524.763C1111.99 526.214 1112.46 523.568 1105.9 534.016L1104.88 534.078C1103.46 532.183 1101.77 514.649 1101.88 511.599L1102.74 510.997L1103.94 511.302C1105.76 514.293 1107.07 516.431 1111.13 515.995C1129.88 513.981 1149.05 512.218 1167.56 508.676C1170.02 508.203 1170.6 504.543 1171.74 502.663L1172.3 501.755Z" fill="#820000"/>
<path d="M1168.15 519.347C1169.65 519.115 1169.13 519.068 1170.61 519.629C1172.66 524.165 1172.96 531.087 1171.22 535.725C1169.81 539.542 1166.85 542.58 1163.07 544.08C1157.95 546.148 1151.46 545.201 1146.47 543.169C1139.87 537.719 1139.81 530.785 1138.85 522.78C1148.04 522.018 1158.86 520.451 1168.15 519.347Z" fill="#FEFEFE"/>
<path d="M1073.17 259.153C1075.66 259.699 1076.23 260.959 1077.74 263.219C1080.21 266.923 1082.52 270.83 1084.95 274.613C1089.72 282.11 1097.02 291.322 1095.03 300.863C1092.78 311.682 1079.04 318.459 1068.79 315.697C1058.81 313.006 1053.64 303.259 1048.62 295.158L1036.79 302.772C1026.94 309.125 1026.93 309.038 1028.91 320.293C1024.97 316.775 1016.56 303.707 1014.12 298.559C1016.91 297.476 1022.33 300.467 1025.84 298.089C1041.08 287.767 1057.68 278.668 1072.16 267.377C1074.06 265.895 1073.13 261.616 1073.17 259.153Z" fill="#820000"/>
<path d="M1079.4 275.406C1080.89 276.633 1082.77 279.738 1083.99 281.372C1094.13 294.965 1078.72 312.174 1063.86 306.301C1058.54 302.962 1055.71 297.909 1052.45 292.738L1079.4 275.406Z" fill="#FEFEFE"/>
<path d="M1178.34 563.84L1179.8 564.324C1181.46 566.367 1180.44 586.624 1180.89 590.913C1183.19 613.159 1162.68 623.413 1145.67 609.568C1138.55 603.779 1139.07 589.424 1139.12 581.144L1130.9 581.226C1125.46 581.199 1114.35 579.989 1111.78 585.829C1111.07 587.45 1110.86 588.217 1109.05 588.329C1107.03 585.226 1107.56 566.978 1108.05 562.727C1109.16 564.247 1112.24 570.412 1113.39 570.516C1131.83 572.196 1155.47 571.069 1174.15 569.859C1176.15 569.729 1177.86 565.008 1178.34 563.84Z" fill="#820000"/>
<path d="M1145.05 580.928C1155.15 580.578 1165.8 580.618 1175.95 580.496C1176.35 588.751 1177.43 595.172 1171.7 601.535C1155.46 611.695 1140.08 599.754 1143.86 581.598L1145.05 580.928Z" fill="#FEFEFE"/>
<path d="M688.641 1087.04C690.205 1086.69 690.111 1086.66 691.676 1086.94C693.609 1091.07 698.689 1128.48 699.861 1135.94C709.676 1133.74 707.027 1129.6 711.879 1127.71L712.787 1128.4C714.176 1131.72 714.164 1135.28 714.451 1138.92C710.092 1139.83 705.053 1140.44 700.6 1141.08C701.607 1146.4 701.859 1152.07 703.729 1157.16C705.012 1160.66 708.111 1159.64 710.725 1161.66L710.625 1162.81C707.836 1165.16 697.67 1165.97 693.615 1166.52C691.049 1167.08 689.356 1168.09 687.703 1165.94C687.984 1164.2 690.287 1163.03 692.168 1161.39C693.82 1157.58 691.67 1147.23 691.008 1142.8C683.719 1143.78 664.986 1147.67 658.869 1146.8C658.816 1146.65 658.746 1146.5 658.711 1146.34C657.99 1142.66 680.156 1093.72 683.789 1088.44C684.662 1087.17 687.229 1087.21 688.641 1087.04Z" fill="#820000"/>
<path d="M684.076 1101.3C685.201 1102.36 689.215 1132.33 689.959 1137.2L673.688 1139.85C671.414 1140.18 669.598 1140.79 667.822 1139.72C670.008 1132.4 680.537 1109.46 684.076 1101.3Z" fill="#FEFEFE"/>
<path d="M80.2084 345.362C81.2086 345.863 81.1576 345.932 82.0283 346.673C82.2516 348.438 82.3611 350.678 83.3848 352.197C85.6119 355.502 135.05 374.559 141.087 375.842C143.367 373.707 145.693 371.622 148.065 369.589C147.24 374.94 140.661 390.779 137.688 395.53C137.44 393.971 136.92 387.778 136.242 387.093C131.556 382.359 114.599 376.716 108.369 374.297C104.887 383.368 100.95 392.666 97.2709 401.689C105.612 405.279 114.939 409.476 123.74 411.828C127.651 412.873 128.302 408.529 131.859 409.037L132.229 409.773C131.25 413.905 127.96 421.335 126.253 425.514C125.554 427.526 125.51 428.094 123.947 429.586C121.826 428.915 121.789 422.635 119.199 421.558C101.686 414.27 82.8955 405.979 64.9676 400.134C62.5342 399.34 60.9908 403.131 58.1342 403.479L57.2083 402.624C58.1053 399.322 63.7858 383.197 66.2309 382.553L67.1039 383.74C67.1889 384.904 67.3242 386.618 67.9002 387.566C70.9301 392.556 86.9461 397.637 92.7516 399.943L103.894 372.45C97.299 369.721 86.6397 364.782 79.7373 363.442C77.7545 363.057 75.2115 366.687 72.5432 366.437C72.0434 363.37 78.5842 348.935 80.2084 345.362Z" fill="#820000"/>
<path d="M964.676 141.496C967.318 142.622 981.387 154.722 981.744 156.896C979.301 158.804 975.82 156.544 974.467 157.374C968.865 160.802 960.158 171.697 956.203 176.197C963.463 182.852 971.016 189.474 978.363 196.053C983.596 190.027 990.141 184.192 994.178 177.312C996.369 173.588 993.844 171.755 994.137 169.32L995.063 168.635C997.318 169.154 1011.17 181.205 1011.1 183.589C1009.32 184.606 1007.23 183.783 1004.87 183.343C998.883 185.346 971.197 220.14 964.752 226.136C963.211 227.575 963.973 233.712 963.949 235.888L963.035 236.433L961.758 235.66C957.328 231.73 950.971 226.413 947.104 222.163L947.186 221.454C949.307 220.39 953.502 221.634 954.428 221.024C960.686 216.916 970.16 205.11 975 199.609L952.881 179.89C947.221 186.21 941.32 192.143 936.076 198.823C931.711 204.381 935.555 206.482 934.266 209.794L933.281 210.019C929.174 206.768 920.953 199.47 917.561 195.614C918.762 194.018 925.213 195.497 927.498 192.965C940.096 178.985 954.012 165.267 965.156 150.148C967.031 147.607 963.627 145.115 964.676 141.496Z" fill="#820000"/>
<path d="M1107.59 314.179L1109.07 314.565C1111.54 316.547 1118.85 333.329 1119.88 337.142C1111.47 331.803 1113.44 330.053 1102.2 335.447C1097.44 337.731 1092.29 340.306 1087.55 342.664C1091.13 350.918 1096.42 361.044 1100.44 369.302C1107.4 366.015 1114.34 362.884 1121.12 359.204C1126.18 356.451 1123.08 351.68 1126.5 350.101C1128.64 352.905 1135.11 366.066 1135.53 369.505L1134.93 370.253C1132.93 370.116 1132.22 369.125 1130.64 367.753L1129.97 367.171C1115.12 370.469 1092.25 385.99 1077.21 391.728C1073.2 393.257 1073.09 399.784 1071.61 401.104L1070.55 400.686C1068.9 397.378 1061.09 383.048 1062.26 380.925C1065.28 380.808 1066.76 384.589 1070.27 383.369C1078.85 380.383 1087.81 375.521 1095.96 371.545C1091.73 362.607 1087.42 353.709 1083.03 344.851C1075.15 348.553 1067.16 351.984 1059.67 356.401C1053.94 359.781 1056.88 362.976 1054.36 365.47L1053.3 365.069C1051.37 361.233 1045.33 349.906 1044.41 346.328L1045.05 345.414C1047.46 345.083 1048.86 347.551 1051.24 347.946C1054.41 348.471 1103.16 324.982 1106.04 321.727C1107.81 319.734 1107.52 316.692 1107.59 314.179Z" fill="#820000"/>
<path d="M1106.71 648.489C1107.17 648.694 1108.11 649.286 1108.59 649.561C1109.13 651.237 1109.99 654.782 1112.1 655.297C1129.5 659.563 1149.4 661.496 1167.08 664.613C1169.59 665.059 1175.87 661.127 1177.92 660.453C1177.72 665.129 1176.47 671.65 1175.71 676.413C1172.84 677.796 1169.41 679.097 1166.43 680.274C1149.4 686.977 1132.43 694.418 1115.13 700.394C1127.44 701.789 1155.76 706.781 1165.92 706.839C1168.05 703.834 1169.07 702.433 1171.62 699.721C1171.41 704.285 1170.22 719.284 1166.96 721.991C1166.48 720.924 1165.98 719.887 1165.62 718.768C1165.32 717.843 1165.05 716.682 1164.35 715.962C1161.1 712.581 1107.18 705.457 1097.36 703.91C1097.53 701.801 1097.96 699.422 1098.29 697.307C1120.79 688.758 1142.98 679.062 1165.69 670.689C1148.39 669.019 1128.11 664.906 1110.6 663.395C1108.14 663.184 1107.38 667.062 1104.79 668.211L1103.65 667.549C1103.53 664.033 1105.5 651.8 1106.71 648.489Z" fill="#820000"/>
<path d="M117.102 278.453C118.423 279.013 117.986 278.733 118.985 279.749C119.041 282.161 118.878 286.087 121.235 287.559C127.225 291.299 133.508 294.681 139.667 298.148L177.85 319.618L174.595 325.428C151.417 326.227 125.37 327.052 102.356 326.89C109.3 330.53 148.16 352.648 151.617 353.029C154.051 353.297 155.779 350.727 158.387 350.552L159.164 351.539C157.689 355.419 152.367 364.151 150.082 368.129C149.837 368.028 149.565 367.974 149.345 367.826C147.468 366.564 148.534 362.916 147.564 360.8C146.108 357.622 98.6701 331.788 93.3498 330.247C91.5252 331.638 89.9701 333.409 87.6809 332.608C87.2039 329.66 93.0399 320.958 94.8123 317.969C102.71 317.361 113.309 317.48 121.492 317.213C134.048 316.802 147.745 316.189 160.212 316.841C147.954 310.652 125.573 297.266 114.636 292.776C112.457 294.327 111.546 295.408 109.096 295.296L108.753 294.146C109.833 290.265 114.834 282.327 117.102 278.453Z" fill="#820000"/>
<path d="M306.183 94.798C307.315 95.5116 306.801 95.0909 307.52 96.3776C306.831 98.6696 306.165 99.4735 304.859 101.53C307.117 107.364 315.646 118.995 319.441 124.514L342.674 158.418L337.214 162.146C315.828 152.294 292.61 142.1 271.704 131.545C278.647 140.988 285.426 150.548 292.041 160.223C295.311 164.94 298.52 169.703 301.872 174.361C304.669 178.246 309.105 176.513 311.772 178.046L311.682 178.797C308.106 181.974 300.983 186.506 296.814 189.331C295.402 188.764 296.019 189.183 295.139 187.799C295.355 187.084 295.598 186.511 295.998 185.877C296.671 184.81 297.213 184.131 297.374 182.829C297.82 179.238 269.734 139.02 265.175 133.661C263.442 131.625 262.241 131.465 259.665 131.249C258.281 131.133 257.198 131.061 255.884 130.56L255.747 129.68C258.863 126.73 265.226 122.737 268.98 120.216C288.38 129.592 308.852 137.836 327.946 147.866C319.074 136.277 308.59 120.507 299.699 108.496C298.631 107.054 293.742 107.192 291.292 105.991C291.744 104.049 303.765 96.4367 306.183 94.798Z" fill="#820000"/>
<path d="M244.523 137.45C245.804 137.915 245.214 137.571 246.113 138.8C243.767 148.083 248.421 149.914 253.48 156.061C262.097 166.528 274.799 176.436 279.638 189.2C284.474 201.959 270.264 216.299 258.989 219.935C248.257 223.322 239.437 213.965 232.871 206.705C225.449 198.501 217.682 188.714 209.669 180.929C206.266 177.622 202.143 179.749 199.431 178.225L200.135 178.586L199.835 177.586L199.877 178.538C200.221 176.221 204.853 172.907 207.016 170.982C210.098 168.132 212.237 166.188 215.587 163.681C217.027 164.431 215.528 172.05 217.989 174.76C228.46 186.386 238.309 198.597 249.731 209.298C260.674 220.339 280.376 203.69 271.706 191.069C262.597 177.81 250.086 165.178 238.994 153.445C237.043 151.382 231.489 153.271 229.719 151.373C231.352 148.872 241.525 140.119 244.523 137.45Z" fill="#820000"/>
<path d="M456.238 31.6451C457.085 31.5891 456.568 31.5325 457.681 32.2351C459.278 36.3409 461.295 41.9535 461.992 46.2541C460.591 47.5483 459.528 47.5535 457.534 48.1393C452.07 41.2912 449.141 38.4556 439.75 41.5896C435.501 43.0076 431.102 44.4967 426.836 45.8944L435.252 72.5061C439.529 71.2646 449.842 69.218 450.672 64.9427C451.245 61.9927 450.475 61.4525 452.325 58.9629C454.538 58.0462 453.611 57.9572 455.525 58.3028C456.918 60.215 460.687 73.3398 461.595 76.4094C460.772 78.3698 461.435 77.6902 459.637 78.6118C456.352 77.9362 453.875 74.5357 451.965 73.4558C449.639 72.1428 439.463 76.0883 436.668 77.0287L445.932 106.419C452.257 104.419 459.782 102.258 465.79 99.6774C471.323 94.174 467.528 87.1097 472.138 82.5403L473.215 82.801C475.922 86.0375 477.924 96.3125 479.036 100.835C473.565 102.57 434.178 115.531 431.998 114.915C431.623 112.312 435.949 108.82 435.204 106.328C429.901 88.5915 424.283 69.8133 418.143 52.408C417.632 50.9617 412.472 48.5495 410.601 47.0801L410.803 46.2951C420.969 42.0301 444.575 35.3766 456.238 31.6451Z" fill="#820000"/>
<path d="M1095.15 714.597C1096.19 715.136 1096.15 715.183 1097.06 715.933C1097.56 718.347 1097.58 719.044 1098.74 721.153C1102.45 724.247 1148.31 736.504 1156.44 737.998C1159.46 738.548 1162.82 734.09 1165.44 731.676C1164.74 736.679 1162.07 745.316 1160.61 750.489L1151.5 782.503C1147.64 781.448 1137.57 779.474 1135.78 776.597C1137.22 773.398 1144.85 772.244 1149.15 769.947C1152.31 765.74 1154.65 754.374 1156.1 748.825C1150.12 747.091 1136.1 742.474 1129.68 742.029C1129.01 741.982 1128.84 742.984 1128.46 743.868C1127.72 746.364 1126.9 749.716 1126.13 752.1C1124.17 758.194 1130.91 760.338 1131.53 764.814L1130.91 765.447C1127.3 766.045 1113.04 762.694 1110.86 759.946C1112.5 754.04 1115.69 757.286 1118.96 755.042C1121.93 753.009 1123.79 743.517 1124.72 740.013L1094.99 731.623C1093.45 737.81 1090.92 743.974 1090 750.366C1088.72 759.336 1098.11 758.393 1100.03 764.621C1099.71 767.176 1100.31 766.437 1098.9 767.685C1096.24 767.814 1084.82 763.455 1081.52 762.313C1085.81 747.038 1090.31 729.531 1095.15 714.597Z" fill="#820000"/>
<path d="M36.6504 475.962C40.3041 476.376 50.6967 477.041 52.7841 480.45C51.8641 483.773 44.1301 484.941 41.6291 486.855C37.7674 489.81 36.539 504.681 35.7565 509.92C44.3766 510.894 54.7981 512.849 63.4957 514.249C63.9111 511.025 65.673 503.324 65.3478 500.548C65.0238 497.78 58.9218 495.025 58.5244 490.591L59.5347 489.922C63.3955 489.52 75.7054 491.541 79.3271 493.173C79.7537 495.374 79.0289 496.14 77.5845 497.491C75.9504 497.866 73.1976 498.388 72.0146 499.448C69.2754 501.9 68.6373 511.155 68.0959 515.079C77.9092 516.379 88.6189 518.354 98.4568 519.964C99.6134 513.6 102.625 501.59 100.322 496.106C97.1314 492.752 93.416 491.164 89.3109 489.195L90.0228 484.093C95.4181 484.93 103.018 486.765 108.53 487.941C106.99 494.517 101.855 533.986 99.7675 536.307C97.814 535.389 97.2498 532.78 94.9634 530.147C90.3521 527.95 45.2755 521.481 37.1017 520.42C35.4422 520.205 32.4061 523.799 29.6904 524.746L28.9812 524.089C29.7312 514.271 34.667 486.126 36.6504 475.962Z" fill="#820000"/>
<path d="M1020.4 193.586C1023.31 194.562 1050.48 226.586 1054.34 230.992C1050.31 234.477 1046.3 237.985 1042.32 241.515L1038.77 237.714C1046.89 223.479 1038.07 219.477 1028.58 208.751C1021.52 214.85 1014.5 220.999 1007.53 227.196C1010.11 230.033 1014.01 235.326 1016.99 237.348C1019.55 239.087 1025.24 235.995 1028.84 238.474L1028.76 239.505C1026.77 242.81 1017.38 250.465 1013.96 253.427L1010.72 249.858C1011.6 248.299 1013.63 244.692 1013.53 243.133C1013.34 240.117 1006.42 232.85 1004.27 230.73C1002.94 230.817 1002.3 231.755 1001.01 232.805L980.795 250.416C983.578 253.682 986.49 257.232 989.25 260.507C996.598 269.222 1001.41 267.144 1010.37 262.984L1013.83 267.013L999.193 278.513C995.32 274.238 967.963 243.827 967.371 241.346C969.129 240.032 975.141 242.46 978.574 239.221C992.104 226.462 1008.23 215.271 1020.41 201.282C1021.65 199.853 1019.38 196.999 1020.4 193.586Z" fill="#820000"/>
<path d="M401.784 48.6124L403.121 48.9872C403.961 51.4339 400.411 54.565 400.432 56.5767C400.666 79.0834 402.405 106.046 404.142 128.133L397.696 130.917C382.632 114.539 368.572 96.3641 353.463 79.9863C352.315 78.7418 346.448 76.6379 344.554 75.9377L344.271 74.9024C345.636 73.0568 346.481 73.1963 348.977 72.1241C353.031 70.2779 361.127 66.3758 365.16 65.3282L365.658 65.7899C364.287 68.9122 362.128 73.5765 364.352 76.9302C367.46 81.6169 371.527 86.0615 375.178 90.3861L397.536 116.813C396.536 100.737 394.898 83.1959 393.183 67.1339C392.087 56.8693 386.176 60.6093 383.016 58.3388L383.2 57.2635C386.729 54.9425 397.349 50.5565 401.784 48.6124Z" fill="#820000"/>
<path d="M840.574 64.8882C843.193 65.5889 852.744 70.5035 855.551 71.9108L884.713 86.5736L877.523 100.887L872.941 98.4692C873.838 89.8898 873.68 85.8413 864.879 81.6239C861.182 79.8522 857.314 78.0259 853.611 76.2424C849.246 84.3437 844.799 93.8125 840.65 102.131C850.09 107.182 853.312 111.257 861.398 102.524L865.693 104.909L858.668 118.77L855.674 124.784L852.568 123.241C851.572 121.522 851.52 121.529 851.818 119.487C852.932 111.847 844.693 109.33 838.43 106.454C834.639 113.92 829.91 122.555 827.033 130.38C826.055 133.029 828.809 135.695 830.355 138.6L829.986 139.811C826.869 139.464 811.828 131.821 809.039 129.857L808.963 129.064L810.182 128.046C811.734 127.879 814.049 127.875 815.438 127.136C819.375 125.037 841.359 79.217 843.527 72.6092L843.779 71.8288C841.342 68.7645 840.275 68.2894 840.574 64.8882Z" fill="#820000"/>
<path d="M1081.14 768.5C1084.88 769.636 1090.96 772.285 1094.77 773.808L1093.3 777.189C1091.39 778.829 1086.91 778.677 1084.39 779.292C1074.25 781.759 1069.52 797.83 1080.18 803.484C1096.86 812.325 1104.59 790.993 1119.1 787.518C1129.04 785.134 1138.93 791.303 1141.04 801.211C1143.16 812.302 1136.67 823.381 1130.7 832.24C1127.77 831.66 1119.66 828.93 1117.82 826.323C1117.51 824.155 1117.26 825.08 1118.38 823.405C1124.18 820.921 1129.37 823.792 1133.49 817.663C1141.86 805.224 1130.23 791.309 1116.94 799.529C1104.96 806.947 1093.83 822.959 1077.72 812.923C1060.06 801.926 1072.42 780.78 1081.14 768.5Z" fill="#820000"/>
<path d="M27.025 535.536C31.7351 536.021 43.3419 535.157 46.0712 538.942C42.2026 549.96 30.9897 534.559 30.4158 559.708C38.3108 560.509 87.5256 563.903 92.2904 561.756C94.0459 560.966 94.7701 559.657 95.608 558.033C96.484 556.335 97.4525 554.782 98.5131 553.194C98.9039 557.203 98.4258 576.567 96.8619 579.623C93.2666 578.268 95.0631 574.222 87.7863 572.771L87.0815 572.638L29.8934 569.674C29.0274 580.145 28.4692 585.076 38.1818 586.676C40.0788 586.987 44.2229 590.145 42.7927 592.828C39.2648 594.821 28.4524 593.578 23.9884 593.356C24.9014 574.078 25.9136 554.804 27.025 535.536Z" fill="#820000"/>
<path d="M622.184 12.9452C641.373 14.4108 660.551 15.9888 679.717 17.6794C679.441 21.8133 679.406 32.0575 677.373 35.2649C676.869 36.0586 676.072 35.7742 674.777 35.8245C667.307 32.1005 678.217 21.7085 655.611 20.3651C653.461 35.6875 652.031 63.0696 650.9 78.8872C651.797 85.2618 655.266 85.0134 660.217 88.4731C655.846 88.7438 637.647 87.599 633.498 86.4582L633.059 85.5284C635.561 82.1882 639.85 84.3765 640.705 77.8513C641.537 71.5124 641.906 65.1308 642.416 58.7555C643.406 45.657 644.473 32.565 645.627 19.4801C624.486 17.7736 634.84 21.547 625.037 31.5286C623.309 31.6775 623.262 31.8606 621.809 31.0102C619.957 27.5496 621.773 17.5238 622.184 12.9452Z" fill="#820000"/>
<path d="M909.281 101.228C923.666 111.941 941.76 123.762 956.742 134.147C954.023 138.1 949.318 145.378 946.248 148.682C944.666 148.75 943.383 147.46 941.982 146.447C945.961 133.266 945.756 131.975 934.359 124.355L903.434 168.805C895.928 179.619 902.373 178.116 902.098 183.203L901.055 183.838C897.152 181.709 885.369 173.516 881.971 170.591L882.334 169.4C884.449 168.416 885.082 169.298 888.164 169.469C895.231 166.257 920.103 127.46 926.191 118.672C922.213 115.794 919.693 113.951 915.1 112.215C909.234 114.084 907.5 115.64 902.953 119.493C901.418 118.403 899.789 117.548 899.232 115.987C901.342 111.912 906.457 105.179 909.281 101.228Z" fill="#820000"/>
<path d="M23.6663 596.608C26.3616 597.199 27.2339 598.647 29.0719 600.58C34.5019 606.287 58.7397 617.184 67.2844 621.549C78.7149 620.53 89.6033 623.858 95.7539 612.837L96.7307 612.755C98.4879 616.083 98.9115 635.47 98.5301 639.712C97.1977 637.884 96.2801 636.062 95.2371 633.994C92.9256 628.932 84.3463 630.748 80.0748 630.531C67.9119 629.928 62.7838 634.387 53.0595 640.539C48.3123 643.409 39.7457 648.313 35.6289 651.589L34.7149 652.321C31.0626 655.233 30.0821 656.944 27.384 660.805C26.9751 656.961 25.3587 638.406 26.7259 635.91L27.686 636.103C29.287 638.131 29.6564 638.863 31.8057 640.158C36.5997 641.265 56.1158 628.094 61.4695 624.825C53.9589 621.075 46.4494 617.278 38.7989 613.845C28.5767 609.263 29.9664 615.567 25.1207 616.44L25.7629 616.517L25.0311 616.282C24.0699 611.806 23.7904 601.4 23.6663 596.608Z" fill="#820000"/>
<path d="M684.539 18.7579C687.592 18.7176 703.74 22.024 706.811 23.1808L707.104 24.2881C704.877 27.1079 705.053 24.2852 701.742 27.4795C699.826 32.6867 707.285 53.5328 709.295 60.0932C714.158 54.5477 726.047 42.2139 728.684 35.2814C729.486 33.1617 727.705 30.5691 726.504 28.6892L726.012 27.9353L726.445 27.0139C729.686 26.7951 740.9 29.4039 744.574 30.3345C745.424 30.5501 745.219 30.646 745.635 31.6375L744.99 32.6176C735.738 36.8904 731.145 43.7861 724.395 51.5368C719.66 56.7209 711.117 65.0481 710.062 71.5112C709.453 75.2546 705.674 89.0204 708.123 92.234C708.48 92.7022 711.211 94.1406 712.477 96.3483L712.096 97.3859C709.371 97.9138 692.602 94.249 689.391 93.1545C689.73 91.405 696.428 88.0144 697.113 85.089C697.957 81.4839 701.379 68.6427 700.875 65.5807C698.813 53.0834 693.521 40.6494 689.871 28.5256C688.594 24.2845 684.797 22.1534 684.539 18.7579Z" fill="#820000"/>
<path d="M176.977 203.301L188.296 212.671C187.378 213.89 186.043 215.42 185.046 216.628C175.825 213.355 168.576 213.348 164.057 223.769C162.196 228.059 163.251 234.354 165.415 238.482C172.083 250.894 184.124 260.386 197.125 265.787C206.09 269.513 215.668 266.189 219.197 256.571C221.088 251.421 218.128 246.3 215.515 241.812L218.864 237.725L224.044 241.969L230.665 247.459C226.875 255.231 220.604 265.045 214.124 270.58C193.292 288.377 152.805 255.098 156.607 231.27C158.604 218.758 167.537 210.542 176.977 203.301Z" fill="#820000"/>
<path d="M54.1336 415.834C58.0844 416.879 64.6318 418.37 68.025 420.334L68.0859 421.385C66.3973 425.489 60.4975 425.136 56.6058 427.693C53.9071 429.231 51.274 432.348 50.8071 435.575C48.0357 454.729 74.2471 462.329 88.5322 464.277C99.3855 465.756 113.442 463.532 114.598 450.75C115.387 442.035 110.596 440.469 105.532 434.81C105.613 432.991 105.452 432.332 106.627 430.961C108.671 430.271 110.251 431.067 112.406 431.703L121.359 434.149C120.643 443.209 119.739 453.137 115.902 461.478C106.942 480.954 80.4 476.018 64.8557 468.72C51.2018 462.309 42.924 449.495 46.6532 434.262C48.3605 427.051 50.6019 422.322 54.1336 415.834Z" fill="#820000"/>
<path d="M517.584 1087.6C518.624 1087.88 518.759 1087.99 519.744 1088.43C521.247 1093.85 507.505 1146.79 508.344 1156.56C509.126 1165.67 518.43 1162.17 522.812 1166.46L522.797 1167.45C522.375 1167.89 522.113 1168.23 521.543 1168.54C518.794 1170.04 485.652 1163.05 480.669 1162.13C479.881 1161.56 480.159 1161.62 479.67 1160.45C482.279 1156.39 496.164 1160.82 497.234 1154.5C498.464 1147.25 508.051 1104.47 506.066 1100.34C500.279 1096.05 493.828 1104.11 489.533 1102.83C488.334 1101.14 488.371 1101.28 488.392 1099.21C488.667 1098.84 488.943 1098.47 489.217 1098.11C496.171 1095.76 511.618 1089.81 517.584 1087.6Z" fill="#820000"/>
<path d="M93.9885 641.792C96.2614 641.576 96.3235 641.212 98.1317 641.997C99.7588 647.048 104.995 682.021 105.18 688.085L104.275 688.835C100.021 687.417 102.667 682.958 93.8596 684.206C76.6869 686.637 59.5957 689.702 42.3876 691.823C39.0637 692.233 36.6018 698.004 33.8731 698.754C32.6491 696.692 32.2693 691.77 31.9105 689.163C31.3002 685.788 30.2591 680.995 30.9262 677.691C41.5816 684.645 44.1729 681.733 56.2956 679.864L98.1645 673.49C96.6328 661.684 97.7514 649.626 83.2149 649.157C81.2332 649.093 79.1022 649.345 77.6971 648.226C77.2412 646.532 77.1557 646.609 77.4909 644.921C79.8821 642.138 89.9133 642.15 93.9885 641.792Z" fill="#820000"/>
<path d="M1149.98 412.571L1151.49 413.185C1153.12 415.121 1157.35 431.136 1157.53 434.087L1156.82 434.505C1154.24 433.087 1150.89 430.095 1147.86 430.846C1142.38 432.207 1136.59 434.035 1131.16 435.615L1091.13 447.261C1092.64 452.571 1094.38 462.234 1097.84 466.04C1102.08 470.713 1108.6 469.031 1114.11 469.345C1116.16 470.804 1115.66 469.896 1116.29 471.799C1115.22 474.811 1113.18 474.807 1110.5 475.488C1106.56 476.682 1099.45 478.109 1095.21 479.112C1092.54 469.178 1089.29 459.168 1086.55 449.249C1085.28 444.634 1083.02 438.138 1082.41 433.547C1084.64 432.384 1087.34 435.792 1089.78 436.36C1092.52 436.999 1143.04 422.839 1146.99 419.919C1149.36 418.168 1149.49 415.261 1149.98 412.571Z" fill="#820000"/>
<path d="M337.017 78.5222C338.068 79.2598 337.591 78.8444 338.188 80.2599C336.882 82.5954 335.738 84.704 335.892 87.4595C336.053 90.3463 361.928 136.371 363.962 138.306C366.199 140.435 369.817 139.368 372.09 141.26C371.395 143.215 356.476 150.896 353.592 152.483L352.422 151.914C351.393 149.626 354.306 148.366 354.62 146.018C355.104 142.384 329.915 97.2271 326.464 93.1C325.235 91.63 324.132 91.3669 322.332 91.2245L320.33 91.0552C318.801 90.924 319.519 91.2099 318.339 89.8629L318.529 88.9782C321.963 86.3592 332.704 80.8458 337.017 78.5222Z" fill="#820000"/>
<path d="M1164.78 468.237C1166.2 468.544 1165.54 468.271 1166.78 469.068C1167.97 472.137 1170.84 486.523 1171.12 489.772L1170.16 490.556L1169.2 490.335C1168.04 488.705 1167.69 487.76 1165.8 487.204C1164.13 486.715 1160.31 486.53 1158.83 486.837C1149.51 488.766 1110.71 495.494 1104.54 498.863C1102.88 500.834 1102.67 502.839 1102.03 505.385L1100.73 504.931C1098.74 502.448 1095.79 484.369 1095.25 480.275C1098.02 482.918 1099.4 485.503 1102.44 487.143C1108.62 487.583 1152.88 477.961 1161.84 475.011C1163.68 474.404 1164.33 470.328 1164.78 468.237Z" fill="#820000"/>
<path d="M137.47 250.093C140.767 252.389 137.564 255.206 139.611 258.198C141.735 261.3 184.722 291.38 188.702 292.396C191.589 293.133 193.468 290.443 196.316 290.951L196.732 291.972C194.481 296.307 187.542 305.742 184.443 310.157C183.328 309.244 183.666 309.59 182.869 308.396C183.127 305.554 183.58 302.311 181.208 300.557C165.904 289.236 149.914 277.879 133.752 267.9C131.492 266.504 128.464 269.594 125.692 269.32L125.18 268.321C126.979 264.589 134.679 254.065 137.47 250.093Z" fill="#820000"/>
<path d="M1107.84 620.008C1108.67 620.307 1109.07 620.565 1109.84 620.981C1110.57 622.487 1111.59 625.229 1113.07 626.137C1116.74 628.381 1167.7 631.352 1173.12 630.262C1176.28 629.623 1178.38 624.748 1180.03 622.258C1180.4 626.752 1179.86 644.3 1178.1 648.284C1175.23 646.579 1175.4 641.71 1172.37 641.511C1161.16 640.779 1118.87 635.23 1110.7 639.109C1109.84 640.75 1109.38 642.249 1107.77 642.941L1106.53 642.331C1106.17 637.779 1107.29 624.866 1107.84 620.008Z" fill="#820000"/>
<path d="M1137.87 380.402C1141.29 381.231 1141.97 385.684 1143.04 388.797C1144.01 391.616 1147.79 399.25 1146.91 401.794C1143.87 401.898 1144.08 399.624 1139.82 398.612C1132.92 399.545 1092.59 415.566 1083.94 419.655C1081.85 420.646 1081.87 424.533 1081.72 426.941C1080.69 426.956 1079.54 426.854 1079.16 425.693C1078.03 422.202 1071.83 408.73 1072.42 406.133C1074.95 406.037 1079.43 409.707 1081.03 409.093C1098.41 402.415 1119.62 396.211 1136 387.658C1137.73 386.759 1137.74 382.097 1137.87 380.402Z" fill="#820000"/>
<path d="M589.541 13.6443C593.373 13.0085 608.889 12.9658 612.328 13.9413C610.5 15.9986 606.129 20.7421 606.287 23.6834C607.26 42.0663 605.326 61.1437 607.658 79.3588C608.057 82.4342 611.66 81.6181 613.729 85.4446C611.314 86.3123 594.381 86.1424 591.135 85.6649L590.631 84.7017L591.211 83.6101C592.957 82.6844 595.4 81.7499 596.092 79.7701C597.428 75.9588 597.094 24.533 595.723 20.0633C594.686 16.6977 590.977 16.9025 589.541 13.6443Z" fill="#820000"/>
</g>
<defs>
<clipPath id="clip0_1_3">
<rect width="1200" height="1197" fill="white"/>
</clipPath>
</defs>
</svg>
